<svg xmlns="http://www.w3.org/2000/svg" viewBox="0 0 542.44 494.36"><defs><style>.cls-1{fill:#fff;}.cls-2{fill:#d2bfb9;}.cls-3{fill:#fffffe;}.cls-4{fill:#fdf8e7;}.cls-5{fill:#f2959a;}.cls-6{fill:#f18d89;}.cls-7{fill:#f29691;}.cls-8{fill:#8d5857;}.cls-9{fill:#99393f;}.cls-10{fill:#f39a9f;}.cls-11{fill:#893a38;}.cls-12,.cls-13{fill:#f9eeea;}.cls-12{opacity:0.83;}.cls-14{fill:#b55c5b;}.cls-15{fill:#f6b09c;}.cls-16{fill:#1d1d1b;}</style></defs><title>eri</title><g id="Camada_3" data-name="Camada 3"><polygon class="cls-1" points="102.58 486.89 110.7 452.24 115.79 423.64 121.22 404.75 139.57 387.85 153.08 383.98 162.61 389.56 172.58 395.97 179.26 399.7 170.22 383.98 181.36 382 192.52 375.46 195.52 369.03 190.3 357.48 187.64 353.26 198.08 342.01 204.26 337.08 217.54 340.21 216.69 349.52 215.29 359.77 222.19 361.85 253.62 363.26 270.89 360.77 270.89 356.71 267.17 346.97 268.89 339.41 290.26 332.36 299.72 333.75 305.19 337.08 307.56 345.18 301.14 353.26 297.01 358.2 296.87 366.76 300.91 367.9 310.41 358.2 326.57 351.33 343.25 350.63 349.93 351.01 348.54 357.48 345.26 369.89 340.64 379.2 333.6 389.11 344.34 381.78 355.14 370.25 365.75 357.48 373.97 365.37 381.32 376.6 389.26 399.32 393.34 412.93 399.75 427.46 405.46 439.86 410.81 447.74 414.24 461.44 416.7 478.27 419.56 489.87 333.6 493.11 176.41 490.83 102.58 486.89"/><polygon class="cls-2" points="272.45 376.88 244.03 379.97 223 381.8 219.08 380.51 217 382.74 242.9 391.55 250.92 390.1 267.67 381.04 272.45 376.88"/><polygon class="cls-3" points="417.71 484.24 428.3 462.87 436.11 445.35 438.62 420.21 440.65 410 457.29 408.37 471.07 408.37 486.03 415.51 503.45 430.72 506.09 437.23 506.09 445.35 502.4 455.73 500.12 467.88 495.76 483.13 493.47 488.36 423.11 489.87 417.71 484.24"/><path class="cls-4" d="M457.38,597.82l2.18-24.2-1.09-29.22.82-4.27,12.33,8.58,1.64-16.33-1.11-18.58,1.11-5,4.18.55,8.46,12.54s.42,11.84,1.27,12.69.86,12.29.86,12.29V558l4.24-4.68,4.83-19.85,1.71-13.9,6.49-7.19,4.73,2.79,1.28,8-1.22,11.17-1.86,12.95v18.13l6.14-7.54,9.11-20L532.32,521l5.33,5.17-.89,6.22L533.63,545l-10.25,27,6.06-.81,12.25-10.86,6.36-11.19,4.74-1.48,3.16,5.64L551.15,566,513.3,613.06" transform="translate(-14.33 -189.4)"/><path class="cls-4" d="M361.75,452l-1.42,14.94-9,21.57-16.9,15.31-23.61,13.55-18.33,8.84-17.08,2.65-22.9,3.57-35.64-6.22s-33.5-16.44-33.62-16.52-18.63-15.15-18.63-15.15L153.9,481.64V470.76l12.11,6.5,8.91,1.64s-10.37-8.64-10.31-8.91-13.75-15.68-13.75-15.68l-6.28-15.91-3.88-13.24-1.86-39.36,4.89,12.81,4.12,14.93,7.7,13.12.54-20s.74-17.63.8-18.16S160,370.94,160,370.94l3.43-25.82,4.27-12.33h1.59L171,344.44l4.59,14.61s4,18.13,5,17.8,5.53,9.47,5.53,9.47l9.38,15.38,8.8,11.84,10,7-10.11-21.12-8.84-24.59-2.16-20.11.72-24.25,3.46-17,4.83,15.67s5.34,21.14,6.24,21.49,14.25,28.52,14.25,28.52l16.4,19.6s17.29,16,17.82,16,15.38,8.56,15.38,8.56l-.55-38.85,2.09-54,4.5,5.31,12.09,24.11,12.47,23.17,11.59,14.26,16.71,10.76,4.74,1.94-5.52-28.19-3.93-33.34.35-10.35s3.86,7.63,4.36,7.49,12.92,24.47,12.92,24.47l10.11,18.37,9.89,13.78,4.68,3.7-1.21,10.08-6.23,20.85-8.56,18.74-3.51,4.51Z" transform="translate(-14.33 -189.4)"/><polygon class="cls-5" points="260.39 305.54 256.23 299.06 241.57 299.39 231.52 301.38 221.19 305.64 216.31 309.99 214.25 313.38 213.33 317.75 214.5 322.94 218.96 328.55 223.86 332.36 234 333.23 250.03 332.36 261.14 330.44 269.55 325.77 272.24 320.44 275.17 311.16 273.47 304.68 269.55 301.38 263.6 302.9 260.39 305.54"/><polygon class="cls-6" points="215.29 359.77 217.54 340.21 229.74 341.11 245.1 342.75 263.84 340.31 268.89 339.41 268.31 345.18 268.88 353.47 273.47 358.38 262.23 361.42 244.38 363.26 226.89 363.26 215.29 359.77"/><path class="cls-7" d="M158.12,381.37s4.92-13.94,7.53-15.73,8.08,3.81,8.08,3.81l7.37,7.64-6.54-23.68-5.3-21.87-3.95,6.74-4.05,19.05Z" transform="translate(-14.33 -189.4)"/><path class="cls-7" d="M199.3,385.92s.1-12.2,1.64-15.17,8.08,4.13,8.08,4.13l14.49,14.17s9.15,5.7,9.51,5.7-20.83-34.18-20.83-34.18l-7.92-21.3-5-22-1.86-5.35-3.17,14.86L193.59,341l-.41,20.8L196.46,378Z" transform="translate(-14.33 -189.4)"/><path class="cls-7" d="M271.51,386.67s4.52-10.33,7.73-14.85,9.5,1.84,9.5,1.84l15,10.47L288.5,357.21l-7.12-19-6.05-8.06-2,13.4-.75,28.76Z" transform="translate(-14.33 -189.4)"/><path class="cls-7" d="M363.36,426.59S362.64,416,362.29,416s-25.07-38.92-25.07-38.92l-4.75,18.38-5.24-35.9-.58-16.4,3.12-1.87,8.4,19.11,11.1,19.13,12.06,18.89,8.32,7.56-2.89,18.57Z" transform="translate(-14.33 -189.4)"/><polygon class="cls-8" points="191.78 345.18 188.98 344.26 183.92 337.08 179.88 326.31 203.72 336.19 198.64 341.27 191.78 345.18"/><path class="cls-8" d="M344.23,492.89" transform="translate(-14.33 -189.4)"/><polygon class="cls-9" points="320.1 351.69 330.21 335.75 338.99 320.12 351.15 298.89 351.15 272.72 349.77 267.96 342.49 288.28 329.9 308.6 301.67 324 291.82 330.17 301.14 332.83 306.85 337.08 307.13 343.71 299.48 353.82 295.92 360.16 298.18 366.49 303.52 365.03 320.1 351.69"/><path class="cls-10" d="M190.12,513.65l-1.05,4.09.53,8.42,3.23,7.63,2,10.08,3.63,9.53,8.39,11.46-7.07,3.75s-7-2-7.08-2.61-7.64-5.38-7.64-5.38l-9.67-11.49-4.6-5.26,1.9,8.08,12.66,22.75,8,14-29.93-18.61L142,546.88l-21.2-41.06-8.06-24.45L107.57,454l-3.34,19-5.2,33S84.72,548.6,84.7,548.67,82.3,566,82.3,566l.77,16.41,4.53,17,12.33,20.87-21-11.42L63.48,591l-10.9-28.35-3.27-21.43L52.16,511l11.55-39.65,3.12-42.57L66,384l-7.66-26.55L32.59,314.11,16.13,279.68H77.26l-14.69,3.83-24,13.16,25.7,2.47,5.72.1-7.38,23.92-5.09,10.4,9.16-2.43,14-12.27,2.08,12.68,2.76,27.51L98,343.41l6.87,5.84.8,15.8v26.14l-.8,14.36,4.56,9.33,14,22.84,29,32.11,1.53,10.27,10.71,15.82Z" transform="translate(-14.33 -189.4)"/><polygon class="cls-11" points="68.97 366.76 77.21 387.22 83.89 400.27 92.96 411.25 103.44 424.77 103.44 415.79 115.02 428 122.99 405.31 129.83 396.02 132.29 362.45 114.74 332.36 102.58 308.66 94.09 276.76 93.88 267.96 89.13 282.46 87.16 308.3 80.97 329.69 73.44 347.98 68.97 366.76"/><path class="cls-12" d="M124.09,287.15s-37.27-5.9-37.11-5.89l-20.77-.43-22.8,14,3,3.48s24.85,2.25,24.19,1.61-5.48,10.68-5.48,10.68l-4.46,16.67L58,332.14l8.63-1L81.18,318l1.51,13.1,3.12,21.83.27,7.67L98,343.41l3-1.47,2.94,7.57,3.21-8.65,9.71-34.92Z" transform="translate(-14.33 -189.4)"/><path class="cls-13" d="M356,256.35c.74-1.38,30.83-19.12,30.83-19.12l38.27-8.64,28.56,4.1-10.77,6.74L431.94,245l2.81,10s6.92,13.77,7.5,13.55,2.74,2.36,2.74,2.36l-4.35,1.3-25.39-4.69-8.59-3.56,1.86,10.74,3.94,13.37,6.29,21.16.55,5.46-20-12.47-11.61-9.11-12.6-19.94Z" transform="translate(-14.33 -189.4)"/><polygon class="cls-14" points="91.62 182.66 90.12 212.3 88.95 215.09 94.43 224.14 101.87 237.26 115.33 257.12 128.28 273.01 141.27 282.35 157.03 289.59 160.59 289.5 143.79 275.86 134.39 259.82 126.37 235.75 124.21 189.08 131.44 216.6 139.81 234.86 142.13 229.49 142.13 200.84 146.87 177.84 148.31 161.42 153.34 143.39 94.65 144.75 90.99 169 91.62 182.66"/><path class="cls-14" d="M167.67,331.54l5.47,20.74,6.25,17.87L187,389.7,199.51,409,212,419.64l1.11-1.53-5.21-13.61-8.13-16-6.33-25.42.61-34,3.4-17.09,4.43,18.58,6.56,21.4,10.29,21.29,10.11,14.41,13.4,14.08,16.54,14.47,13.1,7.22.68-18.36-1.28-37.79,3.06-36.11,5.83,8.14s8.73,20.4,8.91,20.67l21.47,32.35,18.54,15.15,6.84,1.6-4.58-22.37-4-31.54,0-21.2,5.3,14.13,14.86,30.06,10.25,17.46L367.63,406l-.41,11.68-7.31,22.37-11.76,19.72,16-8.58,1.38,10.93-1.22,18-.16,12.2-3.12,2,1.89,8.55-1.46,12.84-5,22.15s8.34-12.57,8.33-12.65,0,10.1,0,10.1l-1.19,10.81-5.55,16.28-7.93,13.9h3.16L365.48,565l19-23.66,9.3-12.14,1.59,6.57.84,8.25-4.81,13.32,7.39,17.6,2.63,6s3.53-1.86,3.72-2,14-15.94,14-15.94L425,551.41l2.41,6.17v15.78l-4.25,15.36-11,23.62,3.33.72,12.75-11.84,11.23-14,9.81-17.28,6-19.09,2.21-21,3.22-28-4.45-31.45-8.65-30.71-5.23-33,.87-31.18,1.43-34.14,2.67-29.8,11.6-22.17,11.08-33.62,6.72-27.13V216.73H458.82L413.33,227.8l4.86,2.58,25.51.21,8.88,4.06-21.38,9.18,7.13,19.34,6.66,7.72-3.1,1.3-28.56-5.49-6.67-2.76,7.46,29.69L420,316l-18.18-14.29-15.47-9.44s5.49,11,6,11,8.55,14.65,8.55,14.65l-53-35.64L170.79,297.19Z" transform="translate(-14.33 -189.4)"/><path class="cls-15" d="M105.65,376.85c1.67-2.53,31.48-50.56,31.48-50.56l10.72,32.11,21.57-29.22,23.76,29.22,2.29-40.48,1.89-4.41,33,38.23L253,370.15l19.57-38.61-1-34.35L308.11,351l20.26,17.36-1.93-32.56-3.63-39.93v-4.54L349.27,328l16.21,16.63,3.3-21.56-6.31-24.52,35,47,9,15L404.79,329l-19.7-41.88-15.44-20.06-15.21-11.95,34-18.29L433.87,222l37.49-5.27h4.3L474,210.45l-45.15.22-49.89,1.93H351.3L325,200.39l-28.75-8.49H262.49l-51.12,6.67-42.11,11.82L142.07,225.8,119.4,247.9l-15.67,1.31L69,262.42,23.86,277.68l-5.68,1.41L22,280.83H71.07l28.17,1.45L124,286.13l-4.47,6.92-6.28,21.06L109,334.16l-2.85,13.48-.81,10.76Z" transform="translate(-14.33 -189.4)"/></g><g id="Camada_2" data-name="Camada 2"><path class="cls-16" d="M121.26,675.92l8.88-49,2.22-12.25a60.79,60.79,0,0,1,2.6-10.91c2.39-6.29,7.26-11.34,12-15.89a73.54,73.54,0,0,1,8.66-7.51c2.8-1.92,6.18-3.65,9.69-3.09a2.58,2.58,0,0,0,3.07-1.75,2.5,2.5,0,0,0-1.75-3.07c-7.76-1.24-14.15,3.55-19.58,8.51s-10.69,9.87-14.37,16.09c-4.16,7-5,15.28-6.43,23.15l-4.62,25.47-5.23,28.9a2.56,2.56,0,0,0,1.74,3.08,2.53,2.53,0,0,0,3.08-1.75Z" transform="translate(-14.33 -189.4)"/><path class="cls-16" d="M186,577.11A57.8,57.8,0,0,0,200.2,572a50.73,50.73,0,0,0,6.34-3.78,14.5,14.5,0,0,0,4.8-5c2.41-4.79.07-9.64-3.22-13.3-1.29-1.42-3.61-2.85-4-4.84s.7-3.83,2-5.19a60.84,60.84,0,0,1,6.68-5.61l7.61-6.07a2.5,2.5,0,0,0,0-3.53,2.55,2.55,0,0,0-3.54,0c-4.24,3.38-8.64,6.64-12.74,10.2-3.66,3.18-6.49,8.2-4.24,13,1.79,3.87,6.6,5.78,7.46,10.22.8,4.08-4.42,6.64-7.29,8.28a53.66,53.66,0,0,1-15.33,5.83c-3.14.68-1.81,5.5,1.33,4.82Z" transform="translate(-14.33 -189.4)"/><path class="cls-16" d="M304.59,523.1c3.47.14,7.28.19,10.43,1.87,2.32,1.24,4.63,3.7,4.26,6.55s-3,5.11-4.89,7.11a24.52,24.52,0,0,0-5.89,9.51c-1,3.48-.16,7.77,3.31,9.56,3.88,2,7.12-.81,9.87-3.27a55.56,55.56,0,0,1,18.76-11.23c7.52-2.57,15.62-3.21,23.16-.38a2.51,2.51,0,0,0,3.07-1.74,2.56,2.56,0,0,0-1.74-3.08c-14.23-5.34-30.25.28-41.89,8.93q-2.35,1.74-4.56,3.66c-1,.86-2.31,2.59-3.69,2.78-.89.12-1.51-.81-1.68-1.64-.32-1.61.52-3.33,1.26-4.72,3.12-5.78,10.81-9.86,9.83-17.31a12.5,12.5,0,0,0-6.66-9.05c-4-2.12-8.55-2.38-13-2.55-3.22-.13-3.21,4.87,0,5Z" transform="translate(-14.33 -189.4)"/><path class="cls-16" d="M379.68,549.37c12.92,11.22,18.76,28,22.5,44.16,1.13,4.91,2,9.8,4.1,14.44a106.54,106.54,0,0,0,7.15,12.6c5,8.17,9.83,16.34,11.83,25.83,2.2,10.51,2,21.54,6.22,31.57a2.59,2.59,0,0,0,3.08,1.75,2.52,2.52,0,0,0,1.74-3.08c-3.75-9-4-18.82-5.61-28.3a61.17,61.17,0,0,0-4.09-14.17,102.42,102.42,0,0,0-6.76-12.71c-2.56-4.22-5.29-8.36-7.62-12.71-2.43-4.53-3.61-9.25-4.7-14.24a136.88,136.88,0,0,0-7.73-25c-3.84-8.9-9.22-17.24-16.58-23.63a2.54,2.54,0,0,0-3.53,0,2.5,2.5,0,0,0,0,3.53Z" transform="translate(-14.33 -189.4)"/><path class="cls-16" d="M434.2,674.9c6.57-13,13.66-26,17.83-40a79.11,79.11,0,0,0,3.5-21.42c0-3.12-.59-6.34-.24-9.44a3.9,3.9,0,0,1,.95-2.44c.91-.88,2.45-.81,3.62-.84,8.42-.19,16.85-.3,25.27-.45,3.22-.06,3.23-5.06,0-5l-23.35.42c-3.36.06-7.15,0-9.51,2.81-2,2.43-2.15,5.69-2,8.7a72.05,72.05,0,0,1-1.79,21.51,117.41,117.41,0,0,1-7.38,20.82c-3.49,7.72-7.42,15.24-11.25,22.8-1.45,2.86,2.86,5.4,4.32,2.52Z" transform="translate(-14.33 -189.4)"/><path class="cls-16" d="M484.74,600.19c5.76,1.11,10.83,4.1,15.42,7.68,5,3.91,9.75,8.27,14.4,12.58,2.13,2,3.58,3.92,3.33,6.95-.26,3.18-1.88,6.11-2.8,9.12-1,3.32-.9,6.63-.81,10.06a20,20,0,0,1-1.81,9c-1.51,3.4-3.17,6.71-4.39,10.23a61.32,61.32,0,0,0-2.69,11.24,2.59,2.59,0,0,0,1.74,3.08,2.53,2.53,0,0,0,3.08-1.75,60.35,60.35,0,0,1,2.4-10.36,94.13,94.13,0,0,1,4-9.51,25.6,25.6,0,0,0,2.7-10.34c.05-3.45-.45-6.79.55-10.16s2.52-6.35,2.95-9.8a12,12,0,0,0-2.95-9.57,80.2,80.2,0,0,0-7.61-7c-2.39-2.13-4.77-4.28-7.24-6.3-5.58-4.55-11.75-8.63-18.93-10a2.56,2.56,0,0,0-3.08,1.74,2.52,2.52,0,0,0,1.75,3.08Z" transform="translate(-14.33 -189.4)"/><path class="cls-16" d="M219.07,547.22c10.9,6.15,23.53,8,35.9,7.94a145.2,145.2,0,0,0,19.21-1.44,60,60,0,0,0,18.33-5.29A35.32,35.32,0,0,0,307,535.59c1.7-2.75-2.62-5.26-4.31-2.52-6,9.69-17.32,13.82-28.05,15.55a130.31,130.31,0,0,1-18,1.51,89.63,89.63,0,0,1-16.93-1,55.81,55.81,0,0,1-18.18-6.2c-2.81-1.58-5.33,2.74-2.52,4.32Z" transform="translate(-14.33 -189.4)"/><path class="cls-16" d="M231.78,548.14c1.48-2.77,1.45-6,1.73-9.11l.86-9.42a2.5,2.5,0,0,0-5,0l-.8,8.74c-.13,1.41-.25,2.82-.39,4.23a8.37,8.37,0,0,1-.72,3,2.56,2.56,0,0,0,.9,3.42,2.53,2.53,0,0,0,3.42-.9Z" transform="translate(-14.33 -189.4)"/><path class="cls-16" d="M286.49,544a2.6,2.6,0,0,1-.4-.23c.21.16.22.13,0-.06.13.17.15.19,0,0s-.12-.2-.17-.3c-.13-.27-.14-.28,0-.06a4,4,0,0,1-.15-.45q-.1-.35-.18-.69a19.54,19.54,0,0,1-.56-3.86,23.69,23.69,0,0,1,.93-8.09,2.5,2.5,0,1,0-4.82-1.32,28.35,28.35,0,0,0-1,10.32c.27,3.1.72,7.41,3.83,9a2.56,2.56,0,0,0,3.42-.9,2.52,2.52,0,0,0-.89-3.42Z" transform="translate(-14.33 -189.4)"/><path class="cls-16" d="M230.25,573.17l14.18,5.23c4.53,1.67,9.21,3.89,14.11,4,4.67.15,8.91-2.06,12.88-4.26q6.52-3.61,12.93-7.45,7.32-4.41,14.47-9.09c1.61-1,.11-3.65-1.51-2.59q-12.07,7.92-24.67,15c-3.86,2.17-8,4.93-12.51,5.33s-9.26-1.81-13.53-3.38L231,570.28c-1.81-.67-2.59,2.23-.79,2.89Z" transform="translate(-14.33 -189.4)"/><path class="cls-16" d="M232.85,570.9c8.29,2.7,17.35.63,25.75-.44L285.76,567c1.25-.16,1.27-2.16,0-2l-26.67,3.39c-4.35.56-8.69,1.21-13.06,1.6a31.23,31.23,0,0,1-12.65-1c-1.23-.4-1.75,1.53-.53,1.93Z" transform="translate(-14.33 -189.4)"/><path class="cls-16" d="M153.64,600.05a28.75,28.75,0,0,1,9.75,5.43,103.92,103.92,0,0,1,8.39,7.3,106.3,106.3,0,0,1,14.27,17c.71,1.06,2.45.06,1.72-1a108.54,108.54,0,0,0-14.89-17.7,105,105,0,0,0-8.63-7.41,29.77,29.77,0,0,0-10.08-5.53,1,1,0,0,0-.53,1.93Z" transform="translate(-14.33 -189.4)"/><path class="cls-16" d="M372.36,615.78a13.24,13.24,0,0,0,9.11-4,27.28,27.28,0,0,0,5.64-9.15,1,1,0,0,0-.69-1.23,1,1,0,0,0-1.23.7c-2.28,5.4-6.21,11.7-12.83,11.71a1,1,0,0,0,0,2Z" transform="translate(-14.33 -189.4)"/><path class="cls-16" d="M369.54,607.38a88.57,88.57,0,0,0,10.57-45c0-1.29-2-1.29-2,0a86.38,86.38,0,0,1-10.3,44c-.61,1.13,1.12,2.14,1.73,1Z" transform="translate(-14.33 -189.4)"/><path class="cls-16" d="M182.19,635.29a49.23,49.23,0,0,1,.16,10.51c-.22,3.56-.46,7.13-.69,10.69-.44,6.88-.65,13.85-2.53,20.52-.71,2.48,3.15,3.54,3.85,1.07,2-7,2.22-14.36,2.68-21.59s1.53-14.93.39-22.27a2,2,0,0,0-2.46-1.39,2.05,2.05,0,0,0-1.4,2.46Z" transform="translate(-14.33 -189.4)"/><path class="cls-16" d="M371.2,676.19c-1.61-3.38-1.62-7.21-1.42-10.87.22-4.1.59-8.18.69-12.29.22-8.48-.16-17-.75-25.42-.34-4.86-.76-9.7-1.17-14.55-.21-2.55-4.22-2.57-4,0,.75,8.79,1.49,17.58,1.82,26.4.16,4.36.21,8.72.11,13.08-.09,4.2-.45,8.37-.69,12.56-.26,4.5,0,9,2,13.11,1.1,2.33,4.55.3,3.45-2Z" transform="translate(-14.33 -189.4)"/><path class="cls-16" d="M462.49,631.48A72.46,72.46,0,0,0,500,653.72c1.88.44,2.68-2.46.8-2.89a69.78,69.78,0,0,1-36.15-21.47c-1.29-1.45-3.4.68-2.12,2.12Z" transform="translate(-14.33 -189.4)"/><path class="cls-16" d="M477.38,630.16c4.43,4,9.8,6.61,15.19,9.09,5.64,2.6,11.6,5.12,17.92,3.84,1.89-.38,1.09-3.27-.8-2.89-5.71,1.16-11.34-1.57-16.39-3.9-4.87-2.26-9.8-4.62-13.8-8.26-1.43-1.3-3.56.82-2.12,2.12Z" transform="translate(-14.33 -189.4)"/><path class="cls-16" d="M459.38,596.2a253.86,253.86,0,0,0,2.1-28q.13-6.88-.11-13.77c-.08-2.38-.2-4.75-.35-7.13-.08-1.14-.16-2.29-.25-3.43,0-.49-.08-1-.11-1.47s.2-1.13-.46-.65-.38.15,0,.46a4.15,4.15,0,0,0,.74.42c.49.28,1,.57,1.45.87q1.44.9,2.79,1.92a40,40,0,0,1,5.07,4.66c1.75,1.89,4.58-.94,2.83-2.83a42.73,42.73,0,0,0-10.67-8.39c-2-1.08-4.67-1.32-5.54,1.3a6.78,6.78,0,0,0-.13,2.73q.17,2.09.3,4.17a252.24,252.24,0,0,1,.07,31.47q-.54,8.83-1.69,17.63a2,2,0,0,0,2,2,2.05,2.05,0,0,0,2-2Z" transform="translate(-14.33 -189.4)"/><path class="cls-16" d="M474.77,549.24a122,122,0,0,0,.35-20c-.17-3.42-.41-6.83-.64-10.25-.11-1.63-.21-3.25-.31-4.88,0-.82-.09-1.63-.13-2.44a8.5,8.5,0,0,0-.09-2.48c-.18-.37-.44.38-.47.26s.38,0,.4.05a12.44,12.44,0,0,1,1.35.71,17.43,17.43,0,0,1,3.11,2.57,23.57,23.57,0,0,1,4.34,6.34c2.61,5.44,3.22,11.62,3.39,17.57a181.4,181.4,0,0,1-.86,22.72,2,2,0,0,0,4,0,181.48,181.48,0,0,0,.86-22.48c-.17-6.84-1-13.79-4-20a26.43,26.43,0,0,0-5.15-7.25c-1.87-1.86-4.6-4.27-7.42-4.23-4,0-3.54,4.42-3.39,7.19.2,3.75.48,7.49.72,11.23.54,8.44.91,16.91,0,25.33a2,2,0,0,0,2,2,2,2,0,0,0,2-2Z" transform="translate(-14.33 -189.4)"/><path class="cls-16" d="M487,562.61c2.57,0,2.58-4,0-4s-2.58,4,0,4Z" transform="translate(-14.33 -189.4)"/><path class="cls-16" d="M488.18,562.65c5.81-3,8.37-10.59,9.55-16.58,1.32-6.76,1.26-13.67,1.94-20.5.32-3.15.9-6.61,3-9.09a6.39,6.39,0,0,1,3.57-2.29c1.35-.19,1.76,1.2,2.07,2.28,2.16,7.36-.19,14.68-1.2,22a153.11,153.11,0,0,0-1.31,26.38c.1,2.57,4.1,2.58,4,0A150,150,0,0,1,511,540c.53-4,1.41-8,2-12a30.49,30.49,0,0,0-.49-11.73c-.86-3.47-2.91-6.79-7-6-3.33.65-6.07,3.34-7.56,6.29-1.72,3.45-2.1,7.33-2.4,11.12-.28,3.63-.43,7.27-.75,10.9a48.62,48.62,0,0,1-2.25,11.65c-1.17,3.39-3,7.22-6.32,8.94-2.29,1.19-.27,4.64,2,3.46Z" transform="translate(-14.33 -189.4)"/><path class="cls-16" d="M508.76,567.34c3.21-.58,4.81-3.73,6.21-6.32,1.69-3.12,3.23-6.31,4.71-9.53,3-6.44,5.63-13,8.55-19.49.69-1.54,1.41-3.08,2.14-4.61.33-.69.67-1.39,1-2.08a9,9,0,0,1,1.24-2.26c.24-.24-.24-.11.06,0s.49.38.63.54a5.22,5.22,0,0,1,.93,1.62,10.62,10.62,0,0,1,.5,4.23,52.76,52.76,0,0,1-1.55,9.07q-1.17,5.19-2.71,10.28A143.3,143.3,0,0,1,521.66,571c-1.14,2.3,2.31,4.33,3.45,2a149.36,149.36,0,0,0,8.68-21.46q1.68-5.3,2.94-10.7a72.21,72.21,0,0,0,2-10.72c.25-3.22-.22-6.58-2.32-9.15a4.89,4.89,0,0,0-4.06-2c-1.82.14-3,1.56-3.77,3.06-3.51,6.68-6.32,13.74-9.32,20.66-1.72,4-3.47,7.91-5.38,11.77-1,1.94-2,3.85-3,5.74-.74,1.33-1.51,3-3.15,3.26-2.53.46-1.46,4.31,1.06,3.86Z" transform="translate(-14.33 -189.4)"/><path class="cls-16" d="M522.69,574.73c7.45.29,13.42-5.1,17.47-10.81,2.24-3.18,4.11-6.59,6.36-9.76A20.2,20.2,0,0,1,550.1,550c.3-.24,1.12-.9,1.54-.68s.62,1.42.73,1.83c2.15,8-3.74,15.4-8,21.44-4.73,6.62-9.53,13.2-14.63,19.55a191.6,191.6,0,0,1-18.63,20.31c-1.89,1.76.94,4.58,2.83,2.83,12.73-11.87,23.25-25.82,33.35-39.94,4.88-6.82,10.58-14.35,9.37-23.26-.26-1.87-.75-4.2-2.16-5.58A4.62,4.62,0,0,0,549,546a13.91,13.91,0,0,0-4.32,4c-1.27,1.6-2.42,3.28-3.52,5-4.22,6.6-9.32,16.09-18.46,15.73-2.58-.1-2.57,3.9,0,4Z" transform="translate(-14.33 -189.4)"/><path class="cls-16" d="M470.67,549.71a63.23,63.23,0,0,0,11.71,27.74c.77,1,2.5,0,1.73-1a61.93,61.93,0,0,1-11.52-27.27c-.2-1.26-2.13-.73-1.92.54Z" transform="translate(-14.33 -189.4)"/><path class="cls-16" d="M545.13,607a106.59,106.59,0,0,1-14.44,35.23c-.69,1.08,1,2.09,1.73,1a108.11,108.11,0,0,0,14.64-35.7c.27-1.26-1.66-1.79-1.93-.53Z" transform="translate(-14.33 -189.4)"/><path class="cls-16" d="M553.86,611.71a47.64,47.64,0,0,1-8.59,25.81c-.74,1.06,1,2.06,1.73,1a49.61,49.61,0,0,0,8.86-26.82c0-1.29-2-1.29-2,0Z" transform="translate(-14.33 -189.4)"/><path class="cls-16" d="M440.35,603.37c-.49,7.65-5.07,14.61-3.58,22.44.24,1.27,2.17.73,1.93-.53-1.42-7.48,3.18-14.54,3.65-21.91.08-1.28-1.92-1.28-2,0Z" transform="translate(-14.33 -189.4)"/><path class="cls-16" d="M434.67,602.66c-.6,8.08-4.23,16.15-1.61,24.23.4,1.22,2.33.7,1.93-.53-2.54-7.83,1.09-15.85,1.68-23.7.1-1.28-1.9-1.27-2,0Z" transform="translate(-14.33 -189.4)"/><path class="cls-16" d="M127.07,659a10.3,10.3,0,0,1,2.86,3.64q1.38,2.46,2.67,5,2.55,4.93,4.76,10c.51,1.18,2.23.16,1.72-1Q136.72,671.23,134,666c-.87-1.68-1.76-3.35-2.71-5a11,11,0,0,0-3.2-3.68c-1.07-.73-2.07,1-1,1.72Z" transform="translate(-14.33 -189.4)"/><path class="cls-16" d="M269.88,489.59a14.63,14.63,0,0,1,4.23,5.14,1.52,1.52,0,0,0,2.59,0,6.32,6.32,0,0,1,9.69-.07c2.5,3.2,1.78,8,.37,11.49a23.81,23.81,0,0,1-20.59,14.44c-2.75.18-5.52.18-8.28.32-2.95.14-5.9.32-8.85.24-5.1-.13-10.51-1.07-14.66-4.23-3.49-2.67-6-7.29-5-11.75,1-4.63,5-7.9,9-10.1,9.71-5.4,21.41-5.24,32.19-5.11,1.93,0,1.93-3,0-3-11.1-.14-22.9-.15-33,5.13-4.67,2.44-9.2,6.18-10.84,11.37s.45,10.72,4.19,14.41c4.09,4,9.88,5.67,15.45,6.14a74.75,74.75,0,0,0,10,0c3.25-.16,6.52-.18,9.76-.39a27,27,0,0,0,14.63-5.19,26.69,26.69,0,0,0,9-11.79c1.81-4.73,2-11.18-2-14.87s-10.45-2.75-13.64,1.48h2.59a17.7,17.7,0,0,0-5.31-6.22c-1.55-1.15-3.05,1.45-1.51,2.59Z" transform="translate(-14.33 -189.4)"/><path class="cls-16" d="M150.37,471.14c.73,8.61,5.15,16.12,10.75,22.5a97.65,97.65,0,0,0,20.31,17.22c7.9,5.12,16.57,9,25.22,12.62a125.42,125.42,0,0,0,26.41,7.81,134.84,134.84,0,0,0,27.58,2.07,120.28,120.28,0,0,0,27.62-3.65c4.63-1.24,8.68-3.53,12.89-5.77s8.74-3.85,13-6c4.45-2.24,8.69-5,13-7.54s8.63-4.88,12.68-7.71a52.66,52.66,0,0,0,16.91-19.44c4.12-8.2,6.15-17.21,7.36-26.25.3-2.28.56-4.57.78-6.85a2,2,0,0,0-2-2,2,2,0,0,0-2,2c-.85,8.72-2.19,17.49-5.27,25.74a50,50,0,0,1-14.09,20.46,73.27,73.27,0,0,1-10.92,7.36L318,511.18a113.53,113.53,0,0,1-12.55,6.35c-4.16,1.81-8,4.09-12.09,6.06a50.12,50.12,0,0,1-13.06,3.75q-6.43,1.15-12.95,1.67a133.75,133.75,0,0,1-26.69-.59,123.93,123.93,0,0,1-25.64-6c-4.22-1.47-8.29-3.24-12.36-5.08s-8.4-3.73-12.44-5.93a100.94,100.94,0,0,1-20.9-15.12c-5.76-5.42-11.29-11.76-13.75-19.42a26.71,26.71,0,0,1-1.17-5.74c-.22-2.54-4.22-2.57-4,0Z" transform="translate(-14.33 -189.4)"/><path class="cls-16" d="M159.83,446.71c6.42-6.07,13.9-11.36,22.7-13.14a26.7,26.7,0,0,1,13.08.49c4,1.22,7.5,3.64,10.9,6,4,2.75,7.91,5.46,12.51,7,3.06,1,4.37-3.79,1.33-4.82-8.42-2.85-14.47-10.13-23-12.9-9.49-3.09-20-.71-28.41,4.13a67.2,67.2,0,0,0-12.65,9.67c-2.35,2.22,1.19,5.75,3.53,3.54Z" transform="translate(-14.33 -189.4)"/><path class="cls-16" d="M296.07,435a150.73,150.73,0,0,1,20.8-15.43c3.17-1.95,6.7-4.2,10.6-3.33s7.49,3.45,10.78,5.67a97,97,0,0,1,11.3,8.9c2.38,2.16,5.93-1.37,3.54-3.54a109.7,109.7,0,0,0-11-8.79c-3.67-2.56-7.57-5.25-11.84-6.66-4.71-1.56-9.21-.39-13.41,2a125,125,0,0,0-11.62,7.57q-6.58,4.74-12.67,10.12c-2.41,2.13,1.14,5.66,3.54,3.53Z" transform="translate(-14.33 -189.4)"/><path class="cls-16" d="M203.9,376.09a59.9,59.9,0,0,0-26.17-4.27c-7.4.47-16.78,1.76-21.28,8.42-1.09,1.6,1.51,3.1,2.59,1.51,1.91-2.82,5.1-4.31,8.28-5.22a49.8,49.8,0,0,1,11.76-1.78,57.76,57.76,0,0,1,24,4.23c1.79.73,2.57-2.17.8-2.89Z" transform="translate(-14.33 -189.4)"/><path class="cls-16" d="M292.78,369.45a38.07,38.07,0,0,1,11.64-5.82A97.3,97.3,0,0,1,318.07,360c8.63-1.52,18-.93,25.27,4.34,1.57,1.13,3.07-1.48,1.52-2.6-12.63-9.1-29.83-5.26-43.29-.29a39,39,0,0,0-10.91,5.87c-1.51,1.19.62,3.3,2.12,2.12Z" transform="translate(-14.33 -189.4)"/><path class="cls-16" d="M206.11,533.59c-3.39-.17-5.14-3.94-6.47-6.56a57.92,57.92,0,0,1-3.84-9.55c-.38-1.23-2.31-.71-1.93.53a60.72,60.72,0,0,0,4.47,10.85c1.66,3.14,3.85,6.53,7.77,6.73,1.29.06,1.29-1.94,0-2Z" transform="translate(-14.33 -189.4)"/><path class="cls-16" d="M364,483.87c-1.59,8.32-6.18,15.64-10.27,22.93-4.35,7.75-8.59,15.58-13.12,23.23a100.37,100.37,0,0,1-8.1,11.92c-.8,1,.6,2.42,1.41,1.42,5.45-6.74,9.62-14.34,13.85-21.87,4.46-8,9.17-15.8,13.31-23.91a49.8,49.8,0,0,0,4.85-13.19c.24-1.26-1.69-1.79-1.93-.53Z" transform="translate(-14.33 -189.4)"/><path class="cls-16" d="M326.81,513.8a58.72,58.72,0,0,1-1.16,15.65c-.27,1.26,1.66,1.79,1.93.53a60.6,60.6,0,0,0,1.23-16.18c-.08-1.28-2.08-1.28-2,0Z" transform="translate(-14.33 -189.4)"/><path class="cls-16" d="M188.23,515.17a35.87,35.87,0,0,0,1.43,13c1.11,4.23,2.35,8.43,3.54,12.64a74.55,74.55,0,0,0,3.89,11.84,62.38,62.38,0,0,0,6.68,10.55c.76,1,2.49,0,1.72-1A64.19,64.19,0,0,1,199,552c-1.81-3.73-2.77-7.79-3.88-11.76s-2.33-8.1-3.41-12.17c-1.13-4.23-2-8.53-1.49-12.92.14-1.27-1.86-1.26-2,0Z" transform="translate(-14.33 -189.4)"/><path class="cls-16" d="M171.37,544.91a67,67,0,0,0,5.62,8,76.09,76.09,0,0,0,6.1,7.2c4.14,4.2,9.22,7.67,15.1,8.8,1.26.24,1.8-1.68.54-1.93-5.73-1.1-10.55-4.48-14.54-8.61a78.72,78.72,0,0,1-5.89-7,65.8,65.8,0,0,1-5.2-7.45c-.63-1.13-2.36-.12-1.73,1Z" transform="translate(-14.33 -189.4)"/><path class="cls-16" d="M149.89,492.57a87.3,87.3,0,0,0,27.77,40.51c1,.81,2.42-.6,1.42-1.41A85.48,85.48,0,0,1,151.82,492c-.4-1.21-2.33-.69-1.93.54Z" transform="translate(-14.33 -189.4)"/><path class="cls-16" d="M161.24,492.89a74.28,74.28,0,0,0,17,40c.83,1,2.24-.43,1.42-1.41a71.86,71.86,0,0,1-16.42-38.56c-.13-1.26-2.13-1.28-2,0Z" transform="translate(-14.33 -189.4)"/><path class="cls-16" d="M105.29,446.52a145.89,145.89,0,0,0,5,36.29,176.37,176.37,0,0,0,13.52,33.78c9.74,19.14,20.58,38.83,36.59,53.5,9.79,9,21.67,14.89,33.19,21.31,2.25,1.26,4.27-2.19,2-3.45-10.09-5.63-20.74-10.78-29.62-18.27a113.71,113.71,0,0,1-20.37-23.24,280.61,280.61,0,0,1-16.16-27.65c-5.54-10.54-10.59-21.34-14.07-32.75a141.61,141.61,0,0,1-6.11-39.52c0-2.57-4-2.58-4,0Z" transform="translate(-14.33 -189.4)"/><path class="cls-16" d="M196.75,589.36c-3.16-3.17-5.58-7.06-8.09-10.75s-4.89-7.27-7.11-11.05c-4.4-7.48-8-15.46-9.32-24.08-.3-1.91-3.19-1.1-2.89.79,1.4,8.86,5.11,17.12,9.62,24.81,2.29,3.9,4.8,7.67,7.35,11.41s5.08,7.74,8.32,11c1.36,1.37,3.48-.75,2.12-2.13Z" transform="translate(-14.33 -189.4)"/><path class="cls-16" d="M363.61,521.41c-5.6,16.71-14,33.57-29.18,43.49-1.62,1.05-.11,3.65,1.51,2.59,12.09-7.89,20.37-20.14,26-33.22,1.7-3.95,3.2-8,4.57-12.06.61-1.84-2.28-2.62-2.9-.8Z" transform="translate(-14.33 -189.4)"/><path class="cls-16" d="M359.46,496.53a84.9,84.9,0,0,1-10,52.89c-.94,1.69,1.65,3.2,2.59,1.52a88.23,88.23,0,0,0,11.17-42.48,87.26,87.26,0,0,0-.9-12.72c-.26-1.91-3.15-1.1-2.89.79Z" transform="translate(-14.33 -189.4)"/><path class="cls-16" d="M316.51,456.53A181.58,181.58,0,0,0,336,443l-1.57-1.22-8,11.47a1,1,0,0,0,.36,1.36c1.72,1.05,3.64.49,5.3-.4,2.23-1.19,4.35-2.65,6.46-4q6.41-4.17,12.5-8.8c1-.77,0-2.51-1-1.73q-5.35,4.05-10.93,7.77c-1.83,1.22-3.68,2.4-5.54,3.56-1.48.92-4,3-5.77,1.91l.36,1.37,8-11.47c.7-1-.75-1.88-1.57-1.21A177.61,177.61,0,0,1,315.5,454.8c-1.09.69-.09,2.42,1,1.73Z" transform="translate(-14.33 -189.4)"/><path class="cls-16" d="M166.37,464.66c3.58-.47,6.49-2.46,9.62-4.09a17.28,17.28,0,0,1,2.57-1.13,8.57,8.57,0,0,1,1-.3,11.74,11.74,0,0,0,1.5-.24c.35,0,.36,0,0-.11l-.37.89-.56,1.34-1.48,3.55a1,1,0,0,0,.69,1.23c7.14,1.9,13.38-2.61,18.69-6.78,1-.79-.41-2.2-1.41-1.41-4.71,3.69-10.39,8-16.74,6.26l.69,1.23,1.68-4c.38-.91,1.17-2.09.8-3.11-.65-1.83-3.61-.95-4.9-.54-4.09,1.32-7.47,4.64-11.82,5.21-1.26.17-1.27,2.17,0,2Z" transform="translate(-14.33 -189.4)"/><path class="cls-16" d="M362.83,446.51c1,16.52,2.07,33.21-.18,49.67A1.57,1.57,0,0,0,363.7,498a1.51,1.51,0,0,0,1.84-1c2.3-16.76,1.33-33.65.29-50.47-.12-1.92-3.12-1.93-3,0Z" transform="translate(-14.33 -189.4)"/><path class="cls-16" d="M363,522.88a71.84,71.84,0,0,1-8.74,43.9,69.1,69.1,0,0,1-7.43,10.68,1.51,1.51,0,0,0,0,2.12c1.55,1.27,3.39,1,5-.12a43.93,43.93,0,0,0,5-4.44c3.39-3.22,6.66-6.57,9.81-10,6.34-6.9,12.24-14.19,18-21.57q4.23-5.43,8.4-10.91a66.69,66.69,0,0,0,7.69-12.23c2.1-4.5,4.11-9,6.12-13.59a60.42,60.42,0,0,0,4.42-13.41c1-5.51,1.76-11.05,2.92-16.53s2.54-10.86,4.14-16.19c.56-1.86-2.34-2.65-2.89-.8a205.19,205.19,0,0,0-6.2,27.48,66.8,66.8,0,0,1-3.11,13.41c-1.63,4.38-3.7,8.6-5.61,12.86A81.92,81.92,0,0,1,394.2,526c-2.48,3.67-5.29,7.12-8,10.63-5.45,7.08-11,14.12-16.84,20.88-3.21,3.71-6.52,7.33-9.95,10.82q-2.62,2.66-5.34,5.21c-.53.5-4.32,4.58-5.1,4v2.12a74.82,74.82,0,0,0,17.44-43.32,72.09,72.09,0,0,0-.39-13.38c-.24-1.89-3.24-1.92-3,0Z" transform="translate(-14.33 -189.4)"/><path class="cls-16" d="M392.81,530.91a35.3,35.3,0,0,1-1.87,24.26c-.8,1.74,1.79,3.27,2.59,1.52a38.64,38.64,0,0,0,2.18-26.58,1.51,1.51,0,0,0-2.9.8Z" transform="translate(-14.33 -189.4)"/><path class="cls-16" d="M401.85,581.89c3.33-.55,5.91-2.93,8.23-5.21a70.27,70.27,0,0,0,16.54-25.46l-2.74.36c2.12,3.25,1.94,7.28,2,11a73.66,73.66,0,0,1-.7,13.11,91.12,91.12,0,0,1-3.27,11.93c-1.24,3.89-2.5,7.77-4,11.57a71.11,71.11,0,0,1-6.09,12.38c-1,1.64,1.56,3.15,2.59,1.52,4.58-7.28,7.41-15.45,10-23.59A103,103,0,0,0,428,577a72.46,72.46,0,0,0,.9-13.65c0-4.47.15-9.34-2.39-13.24a1.52,1.52,0,0,0-2.74.36,68.13,68.13,0,0,1-9,16.43,65.21,65.21,0,0,1-6,7c-2.16,2.19-4.49,4.66-7.65,5.18-1.9.31-1.09,3.2.8,2.89Z" transform="translate(-14.33 -189.4)"/><path class="cls-16" d="M454.47,544.23c-.8,10.95-4.47,21.5-9.62,31.14A118,118,0,0,1,426.26,601a122.53,122.53,0,0,1-13.24,12c-1.52,1.19.61,3.3,2.12,2.12,17.11-13.38,31.43-31.76,38.5-52.44a73.57,73.57,0,0,0,3.83-18.5c.15-1.93-2.85-1.92-3,0Z" transform="translate(-14.33 -189.4)"/><path class="cls-16" d="M405.69,444.87a185.14,185.14,0,0,1-20.39,57.84q-4.26,7.68-9.23,14.92c-.73,1.07,1,2.07,1.72,1a186.69,186.69,0,0,0,26-56.11q2.31-8.47,3.82-17.13c.22-1.26-1.71-1.8-1.93-.53Z" transform="translate(-14.33 -189.4)"/><path class="cls-16" d="M391.73,401.08a105.33,105.33,0,0,1-36.84,54,103.61,103.61,0,0,1-16,10.12l2,3.45c15.57-10.27,22-28.44,26.92-45.56,1.51-5.33,3-10.85,2.3-16.42a2.07,2.07,0,0,0-2-2,2,2,0,0,0-2,2c.58,4.7-.46,9.25-1.71,13.76s-2.52,8.83-4,13.17c-2.74,8-6.28,15.85-11.61,22.45a44.16,44.16,0,0,1-9.9,9.15,2,2,0,0,0,2,3.45,109.17,109.17,0,0,0,47.65-48.32,106.53,106.53,0,0,0,7.06-18.16c.72-2.48-3.14-3.53-3.85-1.06Z" transform="translate(-14.33 -189.4)"/><path class="cls-16" d="M341.42,265.23a32.74,32.74,0,0,1,9.06,10.41,114.46,114.46,0,0,1,6.42,12.64,152.52,152.52,0,0,1,8.85,27.42c4.31,19,5.56,38.55,5.87,58,.09,5.5.17,11,0,16.5a53.31,53.31,0,0,1-2.8,17.14c-.67,1.81,2.23,2.6,2.89.8,3.59-9.74,3-20.5,2.94-30.7s-.43-20.11-1.25-30.12c-1.63-19.78-5.17-39.6-12.84-58a122.8,122.8,0,0,0-7.19-14.66c-2.72-4.63-6-8.94-10.46-12-1.59-1.1-3.09,1.5-1.51,2.59Z" transform="translate(-14.33 -189.4)"/><path class="cls-16" d="M328.47,342.07q6.38,14.26,13.7,28.08,3.72,7,7.68,13.88c2.43,4.21,4.84,8.47,7.59,12.48A36.76,36.76,0,0,0,368,407.3c1.65,1,3.15-1.57,1.52-2.6-7.82-4.88-12.27-13.83-16.74-21.56q-7.65-13.23-14.4-26.94-3.81-7.76-7.34-15.65c-.79-1.76-3.37-.23-2.59,1.52Z" transform="translate(-14.33 -189.4)"/><path class="cls-16" d="M371.32,408.13a1.5,1.5,0,0,0,0-3,1.5,1.5,0,0,0,0,3Z" transform="translate(-14.33 -189.4)"/><path class="cls-16" d="M304.19,261.56a344,344,0,0,0,24.68,41.63q3.9,5.61,8,11.08c1.15,1.52,3.75,0,2.59-1.52a344.57,344.57,0,0,1-26.33-40.61q-3.3-6-6.36-12.1c-.87-1.72-3.46-.21-2.59,1.52Z" transform="translate(-14.33 -189.4)"/><path class="cls-16" d="M274,331.28,279.5,341a77.76,77.76,0,0,1,4.84,9.55c1.27,3.19,2.27,6.49,3.61,9.65a78.16,78.16,0,0,0,4.92,9.26c6.7,11.34,14,22.71,24.12,31.31a56.46,56.46,0,0,0,17.92,10.45c1.83.63,2.62-2.27.8-2.9-11.74-4.05-21.2-12.77-28.6-22.52a176.94,176.94,0,0,1-11-16.69c-1.71-2.88-3.48-5.76-4.9-8.81s-2.41-6.32-3.6-9.48c-2.79-7.4-7.16-14.19-11-21.05a1.5,1.5,0,0,0-2.59,1.51Z" transform="translate(-14.33 -189.4)"/><path class="cls-16" d="M337.37,409.67a87.34,87.34,0,0,1-3.73-16.3c-.88-5.72-1.73-11.43-2.59-17.15-1.71-11.35-3.57-22.76-3-34.28a105.66,105.66,0,0,1,2.84-19.21c.45-1.88-2.44-2.68-2.89-.8a107.31,107.31,0,0,0-2.57,34.58c1.05,11.74,3.17,23.41,4.93,35.06,1,6.38,1.93,12.8,4.11,18.9.65,1.8,3.55,1,2.9-.8Z" transform="translate(-14.33 -189.4)"/><path class="cls-16" d="M196,311.91c5,19.29,9.15,39.07,18.52,56.84a133.26,133.26,0,0,0,31.75,39.41,130.61,130.61,0,0,0,23.95,16.11c1.71.89,3.23-1.7,1.52-2.59a129.52,129.52,0,0,1-63.52-75.88c-3.6-11.41-6.32-23.11-9.32-34.68a1.5,1.5,0,0,0-2.9.79Z" transform="translate(-14.33 -189.4)"/><path class="cls-16" d="M272.32,330.14l-1.41,36.8c-.46,11.94-1.19,23.9-1.14,35.85q0,10.41,1,20.77c.17,1.91,3.18,1.93,3,0a278.87,278.87,0,0,1-.66-36.68L274.52,351l.8-20.88c.07-1.94-2.93-1.93-3,0Z" transform="translate(-14.33 -189.4)"/><path class="cls-16" d="M194.68,313.71A183.84,183.84,0,0,0,192,357.65c.43,7.16,1.07,14.42,3.06,21.34a163.94,163.94,0,0,0,7.19,19.82A173,173,0,0,0,213,419.65a1.5,1.5,0,0,0,2.59-1.51,171.37,171.37,0,0,1-16.83-37.29,91.47,91.47,0,0,1-3.59-20.78,183.42,183.42,0,0,1-.32-21.36,180.47,180.47,0,0,1,2.72-24.2c.34-1.89-2.55-2.7-2.89-.8Z" transform="translate(-14.33 -189.4)"/><path class="cls-16" d="M167.92,329.18c-.74,7.35,1.54,14.49,3.71,21.42,2.23,7.12,4.31,14.31,6.79,21.35a124.53,124.53,0,0,0,19,34.76c4.47,5.76,9.37,11.49,15.76,15.17a1.5,1.5,0,0,0,1.51-2.59c-5.54-3.2-9.85-8.06-13.81-13A121.65,121.65,0,0,1,182,373c-2.48-6.7-4.45-13.59-6.58-20.4-2.37-7.57-5.29-15.35-4.48-23.41.19-1.92-2.81-1.91-3,0Z" transform="translate(-14.33 -189.4)"/><path class="cls-16" d="M168.64,328.27c-7.14,10.4-7.91,23.3-9.23,35.44-.36,3.28-.79,6.55-1.41,9.79s-1.36,6.39-1.89,9.62a133.85,133.85,0,0,0-1.48,19.7c-.12,7.45,0,14.9-.53,22.34-.13,1.92,2.87,1.92,3,0,.91-12.9-.16-25.91,1.54-38.76.85-6.48,2.55-12.79,3.37-19.28s1.19-12.86,2.35-19.2,3.15-12.71,6.87-18.13c1.1-1.6-1.5-3.1-2.59-1.52Z" transform="translate(-14.33 -189.4)"/><path class="cls-16" d="M135.68,374.26c4.48,14,6.88,28.64,12.72,42.19a70.77,70.77,0,0,0,5.85,11c1.06,1.61,3.66.1,2.6-1.52-8-12.2-11.2-26.6-14.86-40.52-1.05-4-2.15-8-3.41-11.91-.59-1.83-3.49-1.05-2.9.79Z" transform="translate(-14.33 -189.4)"/><path class="cls-16" d="M135.82,325.13q.26,35.43,2,70.81.44,8.82,1,17.62a106,106,0,0,0,1.94,17.15c2.24,9.93,7,19.49,12.33,28.11,5.43,8.8,12.46,16.81,22.16,20.9a1.52,1.52,0,0,0,1.85-1.05,1.56,1.56,0,0,0-1-1.85c-8.36-3.52-14.61-10.54-19.43-18-5.31-8.23-10-17.41-12.49-26.91a84.16,84.16,0,0,1-2.19-16.35q-.52-8.69-1-17.36-.87-17.13-1.38-34.28-.58-19.38-.72-38.77a1.5,1.5,0,0,0-3,0Z" transform="translate(-14.33 -189.4)"/><path class="cls-16" d="M106.5,412.6A260,260,0,0,0,128.17,447a154.86,154.86,0,0,0,12.56,15.29,69.23,69.23,0,0,0,16.17,11.89c6.37,3.59,13,7.18,20.52,7.39a1.51,1.51,0,0,0,1.3-2.26l-1.46-1.92c-1.16-1.51-3.76,0-2.59,1.52l1.46,1.92,1.29-2.26c-6.47-.18-12.31-3.23-17.84-6.33-5.78-3.23-11.25-6.58-16-11.29a138.6,138.6,0,0,1-12.31-14.73q-5.84-7.77-11.08-16-6-9.34-11.14-19.19c-.9-1.71-3.49-.19-2.59,1.52Z" transform="translate(-14.33 -189.4)"/><path class="cls-16" d="M106.51,454.2c-4.39,11.57-5,24-6.32,36.21a106,106,0,0,1-3.43,18.28c-1.84,6.16-4.41,12.07-6.76,18.05-4.64,11.75-8.06,24-9,36.65a84.87,84.87,0,0,0,5.47,37.16C90.52,611.2,96.5,623,108,626.91c1.83.63,2.62-2.27.8-2.89C99,620.66,93.64,610.5,90,601.49a83.18,83.18,0,0,1-6.2-35.81c.66-12.34,3.83-24.45,8.23-35.95,2.24-5.86,4.78-11.6,6.76-17.56a94.5,94.5,0,0,0,3.86-17.52c1.78-13.29,1.93-27,6.75-39.65.68-1.81-2.22-2.59-2.9-.8Z" transform="translate(-14.33 -189.4)"/><path class="cls-16" d="M82.87,557.71c.91,5.71,3.73,11.07,6,16.34s4.29,10.61,7.42,15.39c5.87,9,14.31,15.9,19.95,25.06a65.63,65.63,0,0,1,7.37,16.89,1.51,1.51,0,0,0,2.9-.8,72.43,72.43,0,0,0-15.59-28.13c-3.52-4.05-7.29-7.91-10.46-12.25-3.33-4.56-5.59-9.63-7.78-14.79-1.31-3.09-2.63-6.19-3.93-9.28a39.57,39.57,0,0,1-3-9.23c-.31-1.9-3.2-1.1-2.9.8Z" transform="translate(-14.33 -189.4)"/><path class="cls-16" d="M103.56,584.51c6.06,11.93,12.67,24.42,24.28,31.83,1.64,1,3.14-1.56,1.52-2.59-11.14-7.1-17.4-19.33-23.21-30.75-.88-1.72-3.47-.21-2.59,1.51Z" transform="translate(-14.33 -189.4)"/><path class="cls-16" d="M135.94,590.69a3.81,3.81,0,0,1-1-2.35c-.25-1.13-.47-2.27-.67-3.41a56.78,56.78,0,0,1-.78-6.5,35.59,35.59,0,0,1,1.52-13.17c.6-1.84-2.3-2.63-2.89-.8a38.52,38.52,0,0,0-1.57,14.9,68.81,68.81,0,0,0,1,7.28c.38,2,.54,4.77,2.24,6.17,1.48,1.22,3.61-.89,2.12-2.12Z" transform="translate(-14.33 -189.4)"/><path class="cls-16" d="M144.12,550.64q.07,17.42-1.46,34.78l2.79-.76-6.53-12.15a1.53,1.53,0,0,0-2.75.36,55.41,55.41,0,0,0-2,18.87c.13,1.91,3.14,1.93,3,0a52.75,52.75,0,0,1,1.89-18.07l-2.75.36,6.54,12.15c.76,1.41,2.68.62,2.8-.76q1.53-17.35,1.46-34.78a1.5,1.5,0,0,0-3,0Z" transform="translate(-14.33 -189.4)"/><path class="cls-16" d="M115.47,604.77a75.26,75.26,0,0,0,4,13,1.55,1.55,0,0,0,1.84,1.05,1.5,1.5,0,0,0,1-1.84,77.15,77.15,0,0,1-4-13,1.51,1.51,0,0,0-1.84-1.05,1.53,1.53,0,0,0-1,1.85Z" transform="translate(-14.33 -189.4)"/><path class="cls-16" d="M58.25,367.71c6.8,17.69,6.55,36.93,6.58,55.59a290.44,290.44,0,0,1-1.06,29.94A170,170,0,0,1,58,481.73c-5,18.11-10.92,36-10.83,55A102,102,0,0,0,61,588.07a92.88,92.88,0,0,0,34.16,33.62q2.63,1.47,5.34,2.74c2.32,1.1,4.35-2.35,2-3.45A88,88,0,0,1,67,590.12a96.7,96.7,0,0,1-15.69-49A110,110,0,0,1,53.56,514c1.91-9.3,4.69-18.4,7.29-27.53a199.29,199.29,0,0,0,6.27-27.73,229.8,229.8,0,0,0,1.71-29.67c.09-18.54.69-37.81-4.5-55.8-.64-2.23-1.39-4.43-2.22-6.6a2.07,2.07,0,0,0-2.46-1.4,2,2,0,0,0-1.4,2.46Z" transform="translate(-14.33 -189.4)"/><path class="cls-16" d="M446.71,310.1c-4.84,30.6-9.5,61.39-7.27,92.45a247.34,247.34,0,0,0,7.41,44.91c1.92,7.31,4.36,14.47,6.4,21.75a98.34,98.34,0,0,1,3.65,22.08c.81,17.06-.94,34.41-4,51.17a2.56,2.56,0,0,0,1.75,3.07,2.52,2.52,0,0,0,3.07-1.74,250.11,250.11,0,0,0,4.38-46.17,107.34,107.34,0,0,0-2.24-22.83c-1.59-7.29-4-14.35-6.14-21.49a248.66,248.66,0,0,1-8.94-90.16c1.37-17.34,4.09-34.54,6.8-51.71a2.57,2.57,0,0,0-1.74-3.07,2.52,2.52,0,0,0-3.08,1.74Z" transform="translate(-14.33 -189.4)"/><path class="cls-16" d="M351,216.23l48.2-1.95c16.08-.65,32.17-1.45,48.27-1.31,8,.07,16,.37,24,.95l.89.08c.8.06.16.12.13,0a6,6,0,0,1,.23,1.48,60.32,60.32,0,0,1,.44,6.16,76.78,76.78,0,0,1-.63,11.34,147.45,147.45,0,0,1-5.2,22.72c-2,6.79-4.07,13.56-6.29,20.27-4.74,14.29-10.59,28.61-20.52,40.15a2.55,2.55,0,0,0,0,3.53,2.51,2.51,0,0,0,3.53,0c9.35-10.86,15.36-23.92,20.1-37.33,2.38-6.75,4.47-13.61,6.55-20.45a198.58,198.58,0,0,0,6-23.51,78.1,78.1,0,0,0,.88-23.83c-.26-1.93-.8-3.91-2.65-4.91-1.65-.91-3.85-.77-5.67-.89q-6.12-.39-12.23-.6c-16.63-.55-33.26.11-49.88.79l-49.94,2-6.21.25c-3.21.13-3.22,5.13,0,5Z" transform="translate(-14.33 -189.4)"/><path class="cls-16" d="M358.1,255.53a46.93,46.93,0,0,0,10.52-5.85c3.2-2.17,6.5-4.21,9.89-6.08a144.62,144.62,0,0,1,21.22-9.43c14.9-5.3,30.42-8.63,45.93-11.58,9.28-1.77,18.81-4.17,28.31-3.83,2.58.09,2.57-3.91,0-4-8.67-.31-17.29,1.71-25.76,3.29-7.82,1.46-15.63,3-23.39,4.78-15.38,3.57-30.63,8.21-44.73,15.41a121.45,121.45,0,0,0-11.33,6.54c-3.78,2.47-7.42,5.36-11.72,6.89-2.41.85-1.37,4.72,1.06,3.86Z" transform="translate(-14.33 -189.4)"/><path class="cls-16" d="M356.64,256c2.42,1.19,4.47,3.52,6.39,5.37s3.81,3.8,5.6,5.8a108.34,108.34,0,0,1,10,13.05q2.27,3.47,4.26,7.09c.65,1.18,1.27,2.36,1.88,3.56a13.13,13.13,0,0,0,2.21,3.71,21,21,0,0,0,3.34,2.32q2.06,1.33,4.08,2.7,3.78,2.55,7.45,5.24,8.26,6,16,12.76c1.94,1.68,4.78-1.14,2.83-2.83a257.24,257.24,0,0,0-29.53-22.08,6.65,6.65,0,0,1-1.46-1.06,7.23,7.23,0,0,1-.91-1.63q-1-2-2-4c-1.31-2.42-2.72-4.8-4.21-7.12a113.12,113.12,0,0,0-10.12-13.45q-3.06-3.53-6.43-6.77c-2.2-2.13-4.57-4.78-7.35-6.14-2.3-1.14-4.33,2.31-2,3.45Z" transform="translate(-14.33 -189.4)"/><path class="cls-16" d="M404.66,265.12a66.35,66.35,0,0,0,2.65,12.62c1.27,4.35,2.58,8.69,3.87,13q3.82,12.86,7.64,25.71c.74,2.46,4.6,1.41,3.86-1.06l-7.5-25.24q-1.87-6.3-3.74-12.59a65,65,0,0,1-2.78-12.47,2.06,2.06,0,0,0-2-2,2,2,0,0,0-2,2Z" transform="translate(-14.33 -189.4)"/><path class="cls-16" d="M405.9,266.79c12.29,3.76,24.82,7.5,37.8,7.4,2.57,0,2.58-4,0-4-12.62.1-24.79-3.6-36.74-7.26-2.47-.75-3.52,3.11-1.06,3.86Z" transform="translate(-14.33 -189.4)"/><path class="cls-16" d="M414.65,232.86c12.53-1.84,26.09-2.68,38,2.56V232c-3.41,2-6.9,3.91-10.48,5.61-1.81.86-3.64,1.69-5.49,2.45-1.67.69-3.58,1.19-5,2.3-3.34,2.57-1.26,7,0,10.2a63.91,63.91,0,0,0,12.28,20.09c1.72,1.93,4.54-.91,2.83-2.83a60.13,60.13,0,0,1-12.39-21.55c-.2-.65-.83-1.89-.45-2.56s1.75-.94,2.35-1.18q3.06-1.22,6.05-2.58a125.78,125.78,0,0,0,12.39-6.49c1.17-.7,1.42-2.83,0-3.46-13-5.73-27.32-5-41-3a2,2,0,0,0-1.4,2.46,2.06,2.06,0,0,0,2.46,1.4Z" transform="translate(-14.33 -189.4)"/><path class="cls-16" d="M414.72,228.67c-7.81,2.26-15.71,4.32-23.37,7a146.59,146.59,0,0,0-21.09,9.38q-5.75,3.12-11.2,6.76c-2.13,1.42-.13,4.89,2,3.46a148.4,148.4,0,0,1,41.27-18.88q6.7-2,13.43-3.89c2.47-.72,1.42-4.58-1.06-3.86Z" transform="translate(-14.33 -189.4)"/><path class="cls-16" d="M352.56,210.45a141.3,141.3,0,0,0-45.12-17.38,195.81,195.81,0,0,0-50.45-3.3c-17.85,1-35.54,4-53,7.81a252,252,0,0,0-25.53,6.67,137.94,137.94,0,0,0-57.14,36.58c-1.26,1.35-2.5,2.73-3.7,4.13a2.54,2.54,0,0,0,0,3.53,2.51,2.51,0,0,0,3.53,0A133.76,133.76,0,0,1,155,220.35a130.72,130.72,0,0,1,19.79-9.48,190.52,190.52,0,0,1,24.22-7,359.52,359.52,0,0,1,51.71-8.62c16.5-1.37,33.23-1.18,49.58,1.58a141.85,141.85,0,0,1,44.65,15c1.73,1,3.44,2,5.13,3,2.76,1.68,5.27-2.64,2.53-4.32Z" transform="translate(-14.33 -189.4)"/><path class="cls-16" d="M119.48,244c-6.94-.59-13.65,1.66-20,4.15-6.59,2.59-13.18,5.19-19.81,7.69q-19.87,7.48-40,14.15-11.4,3.76-22.89,7.28c-3.07.94-1.76,5.77,1.33,4.82q40.36-12.34,79.66-27.9c7-2.76,14.13-5.83,21.76-5.19a2.52,2.52,0,0,0,2.5-2.5,2.55,2.55,0,0,0-2.5-2.5Z" transform="translate(-14.33 -189.4)"/><path class="cls-16" d="M14.44,279.75C19,293,25.38,305.67,31.83,318.08s13.42,24.13,20.57,36c3.6,6,7.12,12.36,7.67,19.45a2.56,2.56,0,0,0,2.5,2.5,2.53,2.53,0,0,0,2.5-2.5c-.52-6.67-3.11-12.81-6.37-18.58s-7-11.47-10.37-17.27Q37.64,319.37,28.5,300.21a204.49,204.49,0,0,1-9.24-21.79,2.56,2.56,0,0,0-3.07-1.75,2.53,2.53,0,0,0-1.75,3.08Z" transform="translate(-14.33 -189.4)"/><path class="cls-16" d="M124,284.13c-6.82.41-13.4-1.81-20-3a154.63,154.63,0,0,0-20.48-2.07c-13.75-.57-27.56-.31-41.32-.12-8,.1-16,.32-23.93.74-2.56.13-2.58,4.13,0,4,14.12-.74,28.26-.83,42.39-.86,13.54,0,27.2-.26,40.61,1.88,7.54,1.21,15,3.86,22.77,3.4,2.56-.16,2.58-4.16,0-4Z" transform="translate(-14.33 -189.4)"/><path class="cls-16" d="M66,280.55a220.49,220.49,0,0,1-28.46,14.67c-1.51.65-1.17,3.43.48,3.66a239.88,239.88,0,0,0,33,2.37l-1.73-3c-3.29,5.13-4,11.44-5.89,17.14a81.88,81.88,0,0,1-7.73,16.76,2,2,0,0,0,1.2,2.94c5.19,1.77,10.46-1.75,14.48-4.68a56.69,56.69,0,0,0,11.23-10.81l-3.41-1.42q2.63,21.13,3.92,42.4a2,2,0,0,0,3.72,1l10.55-14.13c.74-1,1.48-2,2.3-2.88.09-.11.25-.13,0-.15s.1.15.19.29c.3.5.59,1,.85,1.5a22.85,22.85,0,0,1,2.25,7.27,2,2,0,0,0,2.46,1.4,2,2,0,0,0,1.39-2.46,25.37,25.37,0,0,0-3-9,5.3,5.3,0,0,0-3.11-2.87,4.37,4.37,0,0,0-4.18,1.56,49.74,49.74,0,0,0-3.12,4.1l-3.27,4.38-6.69,9,3.73,1q-1.29-21.26-3.92-42.4a2,2,0,0,0-1.23-1.82,2,2,0,0,0-2.19.41A53.77,53.77,0,0,1,70,326.44a42.9,42.9,0,0,1-5.7,3.72c-2,1.06-4.16,1.82-6.38,1.07l1.2,2.93A87.87,87.87,0,0,0,67,317.3c1-2.88,1.74-5.8,2.51-8.74a28.39,28.39,0,0,1,3.26-8.31,2,2,0,0,0-1.72-3,232.49,232.49,0,0,1-32-2.23l.48,3.66A219.3,219.3,0,0,0,68,284c2.19-1.34.18-4.8-2-3.45Z" transform="translate(-14.33 -189.4)"/><path class="cls-16" d="M146.84,259.69c-18.44,10.92-28.32,30.66-34.52,50.43a216.65,216.65,0,0,0-7.74,34.2A150.35,150.35,0,0,0,103,361.79c-.15,5.79,0,11.58.09,17.37a187.61,187.61,0,0,1-.4,20A70.77,70.77,0,0,1,98.41,418a2,2,0,0,0,1.39,2.46,2,2,0,0,0,2.46-1.39c4.1-10.9,5-22.28,4.92-33.83s-.72-23.12.59-34.63a211.88,211.88,0,0,1,6.62-33.39c3-10.45,6.55-20.82,12-30.27s12.94-18.1,22.51-23.77c2.21-1.31.2-4.77-2-3.45Z" transform="translate(-14.33 -189.4)"/><path class="cls-16" d="M241.56,227.69a71.85,71.85,0,0,1,8,6.37,36.44,36.44,0,0,1,6.17,8.37c3.59,6.24,7.15,12.6,8.33,19.79a2,2,0,0,0,2.46,1.4,2,2,0,0,0,1.39-2.46c-1.25-7.65-5.12-14.5-8.95-21.13a38.88,38.88,0,0,0-6.72-8.94,79.89,79.89,0,0,0-8.7-6.85,2,2,0,0,0-2.73.72,2,2,0,0,0,.71,2.73Z" transform="translate(-14.33 -189.4)"/><path class="cls-16" d="M227.93,211.84c-2.24-.21-4,1.32-5.19,3-1.36,1.83-2.49,3.85-3.7,5.77-2.56,4.08-5.09,8.17-7.5,12.34a150.6,150.6,0,0,0-12.08,25.55A89.21,89.21,0,0,0,195.55,274a2.07,2.07,0,0,0,1.39,2.47,2,2,0,0,0,2.46-1.4c2.77-17.71,11.43-33.61,20.74-48.66,1.29-2.08,2.59-4.14,3.89-6.2.64-1,1.24-2.07,1.94-3,.51-.68,1.05-1.4,2-1.31a2,2,0,0,0,2-2,2,2,0,0,0-2-2Z" transform="translate(-14.33 -189.4)"/><path class="cls-16" d="M172,285a72.08,72.08,0,0,1,11.75-44.09c1.42-2.15-2-4.16-3.46-2A75.8,75.8,0,0,0,168,285c.15,2.56,4.15,2.58,4,0Z" transform="translate(-14.33 -189.4)"/><path class="cls-16" d="M172,234.31c9.72-10.85,21-21.44,35.7-24.61a36.29,36.29,0,0,1,12.34-.5,2,2,0,0,0,2-2,2.05,2.05,0,0,0-2-2c-15.8-2.09-30.5,6.35-41.66,16.76-3.23,3-6.26,6.24-9.21,9.53-1.71,1.91,1.11,4.75,2.83,2.82Z" transform="translate(-14.33 -189.4)"/><path class="cls-16" d="M254.13,215.62c.67-2.68,2.83-4.55,4.87-6.26a58,58,0,0,1,7.33-5.22,60.11,60.11,0,0,1,16.46-6.84c2.5-.63,1.44-4.49-1.06-3.86a63.84,63.84,0,0,0-18.14,7.69,65.08,65.08,0,0,0-7.91,5.81c-2.4,2.06-4.62,4.47-5.4,7.62-.62,2.5,3.24,3.57,3.85,1.06Z" transform="translate(-14.33 -189.4)"/><path class="cls-16" d="M384.59,294.1c5.72,8,9.87,16.89,13.76,25.85,4,9.12,8.07,18.31,10.33,28a54,54,0,0,1,1.37,16.57c-.21,2.57,3.79,2.55,4,0,.83-10.23-1.74-20.34-5.29-29.86-1.83-4.89-3.9-9.69-6-14.48-2-4.57-4-9.13-6.17-13.59a105.13,105.13,0,0,0-8.57-14.55,2.06,2.06,0,0,0-2.74-.72,2,2,0,0,0-.72,2.74Z" transform="translate(-14.33 -189.4)"/><path class="cls-16" d="M412.19,367.76c2.57,0,2.58-4,0-4s-2.58,4,0,4Z" transform="translate(-14.33 -189.4)"/><path class="cls-16" d="M291.7,222.31c4.06-.21,7.83,1.31,11.48,2.91,3.83,1.69,7.66,3.39,11.43,5.19A126.27,126.27,0,0,1,336,243.19c6.94,5.19,13.67,10.68,20.43,16.09,6.39,5.11,12.71,10.39,18.15,16.54,5.61,6.33,10.21,13.67,12.44,21.9.67,2.48,4.53,1.43,3.86-1.07-4.35-16-16.59-28-29.1-38.17q-10.46-8.49-21.13-16.74A128.76,128.76,0,0,0,318.73,228c-4.39-2.16-8.86-4.14-13.33-6.11s-8.84-3.8-13.7-3.55c-2.56.14-2.57,4.14,0,4Z" transform="translate(-14.33 -189.4)"/><path class="cls-16" d="M508.15,674.77c-50.94,1.59-101.88,3.42-152.84,4.39s-101.84.78-152.75-.59q-42.85-1.14-85.68-3.4c-2.57-.14-2.57,3.86,0,4q76.68,4,153.5,4.53c50.87.33,101.71-.74,152.55-2.28q42.61-1.29,85.22-2.65c2.57-.08,2.58-4.08,0-4Z" transform="translate(-14.33 -189.4)"/><path class="cls-16" d="M116.11,679.17c2.57,0,2.58-4,0-4s-2.58,4,0,4Z" transform="translate(-14.33 -189.4)"/><path class="cls-16" d="M297.86,415.31a52.34,52.34,0,0,1,24-9.26c.63-.08.63-1.08,0-1a53.33,53.33,0,0,0-24.53,9.4c-.52.37,0,1.23.51.86Z" transform="translate(-14.33 -189.4)"/><path class="cls-16" d="M217.57,428.33A42.27,42.27,0,0,0,202,421.68c-.63-.12-.9.84-.27,1a41.31,41.31,0,0,1,15.32,6.54c.53.37,1-.5.51-.86Z" transform="translate(-14.33 -189.4)"/></g></svg>